<svg width="26" height="26" viewBox="0 0 26 26" fill="none" xmlns="http://www.w3.org/2000/svg">
<path fill-rule="evenodd" clip-rule="evenodd" d="M11.1429 1.85714C11.1429 1.3646 10.9472 0.892226 10.5989 0.543944C10.2506 0.195663 9.77826 0 9.28572 0H1.85714C1.3646 0 0.892227 0.195663 0.543945 0.543944C0.195663 0.892226 0 1.3646 0 1.85714V9.28571C0 9.77826 0.195663 10.2506 0.543945 10.5989C0.892227 10.9472 1.3646 11.1429 1.85714 11.1429H9.28572C9.77826 11.1429 10.2506 10.9472 10.5989 10.5989C10.9472 10.2506 11.1429 9.77826 11.1429 9.28571V1.85714ZM24.1429 14.8571C24.6354 14.8571 25.1078 15.0528 25.4561 15.4011C25.8043 15.7494 26 16.2217 26 16.7143V24.1429C26 24.6354 25.8043 25.1078 25.4561 25.4561C25.1078 25.8043 24.6354 26 24.1429 26H16.7143C16.2217 26 15.7494 25.8043 15.4011 25.4561C15.0528 25.1078 14.8571 24.6354 14.8571 24.1429V16.7143C14.8571 16.2217 15.0528 15.7494 15.4011 15.4011C15.7494 15.0528 16.2217 14.8571 16.7143 14.8571H24.1429ZM9.75 15.7857C10.1194 15.7857 10.4737 15.9325 10.7349 16.1937C10.9961 16.4549 11.1429 16.8092 11.1429 17.1786C11.1429 17.548 10.9961 17.9023 10.7349 18.1635C10.4737 18.4247 10.1194 18.5714 9.75 18.5714H1.39286C1.02345 18.5714 0.66917 18.4247 0.407959 18.1635C0.146748 17.9023 0 17.548 0 17.1786C0 16.8092 0.146748 16.4549 0.407959 16.1937C0.66917 15.9325 1.02345 15.7857 1.39286 15.7857H9.75ZM9.75 22.2857C10.1194 22.2857 10.4737 22.4325 10.7349 22.6937C10.9961 22.9549 11.1429 23.3092 11.1429 23.6786C11.1429 24.048 10.9961 24.4023 10.7349 24.6635C10.4737 24.9247 10.1194 25.0714 9.75 25.0714H1.39286C1.02345 25.0714 0.66917 24.9247 0.407959 24.6635C0.146748 24.4023 0 24.048 0 23.6786C0 23.3092 0.146748 22.9549 0.407959 22.6937C0.66917 22.4325 1.02345 22.2857 1.39286 22.2857H9.75Z" fill="#F54F59"/>
<path d="M25.592 1.33653C25.8533 1.59774 26 1.95202 26 2.32143C26 2.69084 25.8533 3.04512 25.592 3.30633C25.3308 3.56754 24.9766 3.71429 24.6071 3.71429H16.25C15.8806 3.71429 15.5263 3.56754 15.2651 3.30633C15.0039 3.04512 14.8571 2.69084 14.8571 2.32143C14.8571 1.95202 15.0039 1.59774 15.2651 1.33653C15.5263 1.07532 15.8806 0.928572 16.25 0.928572H24.6071C24.9766 0.928572 25.3308 1.07532 25.592 1.33653Z" fill="#F54F59"/>
<path d="M25.592 7.83653C25.3308 7.57532 24.9766 7.42857 24.6071 7.42857H16.25C15.8806 7.42857 15.5263 7.57532 15.2651 7.83653C15.0039 8.09774 14.8571 8.45202 14.8571 8.82143C14.8571 9.19084 15.0039 9.54512 15.2651 9.80633C15.5263 10.0675 15.8806 10.2143 16.25 10.2143H24.6071C24.9766 10.2143 25.3308 10.0675 25.592 9.80633C25.8533 9.54512 26 9.19084 26 8.82143C26 8.45202 25.8533 8.09774 25.592 7.83653Z" fill="#F54F59"/>
</svg>
