<svg width="26" height="26" viewBox="0 0 26 26" fill="none" xmlns="http://www.w3.org/2000/svg">
<path d="M8.48214 8.35714V8.48214H8.35714H2.78572H2.66072V8.35714V2.78571V2.66071H2.78572H8.35714H8.48214V2.78571V8.35714ZM23.2143 17.5179H23.3393V17.6429V23.2143V23.3393H23.2143H17.6429H17.5179V23.2143V17.6429V17.5179H17.6429H23.2143ZM11.0179 1.85714C11.0179 1.39775 10.8354 0.957173 10.5105 0.632333C10.1857 0.307493 9.74511 0.125 9.28572 0.125H1.85714C1.39775 0.125 0.957174 0.307493 0.632334 0.632333C0.307493 0.957173 0.125 1.39775 0.125 1.85714V9.28571C0.125 9.74511 0.307493 10.1857 0.632334 10.5105C0.957174 10.8354 1.39775 11.0179 1.85714 11.0179H9.28572C9.74511 11.0179 10.1857 10.8354 10.5105 10.5105C10.8354 10.1857 11.0179 9.74511 11.0179 9.28571V1.85714ZM25.3677 15.4895C25.0428 15.1646 24.6022 14.9821 24.1429 14.9821H16.7143C16.2549 14.9821 15.8143 15.1646 15.4895 15.4895C15.1646 15.8143 14.9821 16.2549 14.9821 16.7143V24.1429C14.9821 24.6022 15.1646 25.0428 15.4895 25.3677C15.8143 25.6925 16.2549 25.875 16.7143 25.875H24.1429C24.6022 25.875 25.0428 25.6925 25.3677 25.3677C25.6925 25.0428 25.875 24.6022 25.875 24.1429V16.7143C25.875 16.2549 25.6925 15.8143 25.3677 15.4895ZM10.6465 16.2821C10.4087 16.0443 10.0863 15.9107 9.75 15.9107H1.39286C1.0566 15.9107 0.734118 16.0443 0.496347 16.2821C0.258577 16.5198 0.125 16.8423 0.125 17.1786C0.125 17.5148 0.258577 17.8373 0.496347 18.0751C0.734118 18.3129 1.0566 18.4464 1.39286 18.4464H9.75C10.0863 18.4464 10.4087 18.3129 10.6465 18.0751C10.8843 17.8373 11.0179 17.5148 11.0179 17.1786C11.0179 16.8423 10.8843 16.5198 10.6465 16.2821ZM10.6465 22.7821C10.4087 22.5443 10.0863 22.4107 9.75 22.4107H1.39286C1.0566 22.4107 0.734118 22.5443 0.496347 22.7821C0.258577 23.0198 0.125 23.3423 0.125 23.6786C0.125 24.0148 0.258577 24.3373 0.496347 24.5751C0.734118 24.8129 1.0566 24.9464 1.39286 24.9464H9.75C10.0863 24.9464 10.4087 24.8129 10.6465 24.5751C10.8843 24.3373 11.0179 24.0148 11.0179 23.6786C11.0179 23.3423 10.8843 23.0198 10.6465 22.7821ZM25.875 2.32143C25.875 1.98517 25.7414 1.66269 25.5037 1.42492C25.2659 1.18715 24.9434 1.05357 24.6071 1.05357H16.25C15.9137 1.05357 15.5913 1.18715 15.3535 1.42492C15.1157 1.66269 14.9821 1.98517 14.9821 2.32143C14.9821 2.65769 15.1157 2.98017 15.3535 3.21794C15.5913 3.45571 15.9137 3.58929 16.25 3.58929H24.6071C24.9434 3.58929 25.2659 3.45571 25.5037 3.21794C25.7414 2.98017 25.875 2.65769 25.875 2.32143ZM25.5037 7.92492C25.2659 7.68715 24.9434 7.55357 24.6071 7.55357H16.25C15.9137 7.55357 15.5913 7.68715 15.3535 7.92492C15.1157 8.16269 14.9821 8.48517 14.9821 8.82143C14.9821 9.15769 15.1157 9.48017 15.3535 9.71794C15.5913 9.95571 15.9137 10.0893 16.25 10.0893H24.6071C24.9434 10.0893 25.2659 9.95571 25.5037 9.71794C25.7414 9.48017 25.875 9.15768 25.875 8.82143C25.875 8.48517 25.7414 8.16269 25.5037 7.92492Z" fill="#252525" stroke="white" stroke-width="0.25"/>
</svg>
