<svg width="29" height="31" viewBox="0 0 29 31" fill="none" xmlns="http://www.w3.org/2000/svg">
<path d="M24 3C24 1.89543 23.1046 1 22 1H3C1.89543 1 1 1.89543 1 3V25C1 26.1046 1.89543 27 3 27H22C23.1046 27 24 26.1046 24 25V3Z" fill="#F54F59" stroke="#F54F59" stroke-width="2"/>
<path d="M19 7L7 7" stroke="white" stroke-width="2" stroke-linecap="round"/>
<path d="M16 13L7 13" stroke="white" stroke-width="2" stroke-linecap="round"/>
<path d="M13 19H7" stroke="white" stroke-width="2" stroke-linecap="round"/>
<path d="M23.5 18L21.2 17L20 19L20.6 21L23.5 18Z" fill="#F54F59"/>
<path d="M15.1111 26.7143L16 25.8571V25.4286L14.2222 25L13.7778 25.4286L13.3333 25.8571L12.4444 26.5L11 28H12.4444H13.7778L15.1111 26.7143Z" fill="#F54F59"/>
<path d="M19.8889 21.7143L21 20.8571V20.4286L18.7778 20L18.2222 20.4286L17.6667 20.8571L17.1111 21.7143L16 22.5714L16.5556 23H18.2222L19.8889 21.7143Z" fill="#F54F59"/>
<path d="M23.5954 10.3885L23.5955 10.3885L23.5911 10.3935L21.8049 12.4195L26.0504 15.6918L27.7309 13.6809C27.8916 13.4887 27.957 13.2102 27.9421 13.049C27.9273 12.8877 27.8129 12.6325 27.6242 12.4829L24.8055 10.2486C24.4291 9.95019 23.9181 10.0024 23.5954 10.3885Z" fill="#F54F59" stroke="white" stroke-width="0.5"/>
<path d="M25.498 12.9727C25.5446 12.9171 25.5679 12.8429 25.5679 12.7965C25.5679 12.7501 25.5445 12.6851 25.4978 12.648L24.9608 12.2205C24.8674 12.1462 24.7273 12.1738 24.634 12.2851L24.1907 12.7901L25.078 13.4731L25.498 12.9727Z" fill="#FEECED"/>
<path d="M22.5673 16.8638L22.7971 17.046L22.6091 17.2709L13.296 28.4148L13.2163 28.5102L13.0897 28.5244L12.0777 28.6383L11.7662 28.6734L11.7388 28.376L11.6478 27.3877L11.6371 27.2706L11.7143 27.1782L21.0274 16.0343L21.224 15.799L21.4643 15.9895L22.5673 16.8638ZM10.2763 30.4709L14.1104 30.0393L25.0919 16.78L21.0254 13.5566L9.9305 26.7137L10.2763 30.4709Z" fill="#F54F59" stroke="white" stroke-width="0.6"/>
</svg>
