<svg width="29" height="31" viewBox="0 0 29 31" fill="none" xmlns="http://www.w3.org/2000/svg">
<path d="M24 3C24 1.89543 23.1046 1 22 1H3C1.89543 1 1 1.89543 1 3V25C1 26.1046 1.89543 27 3 27H22C23.1046 27 24 26.1046 24 25V3Z" stroke="#252525" stroke-width="2"/>
<path d="M19 7L7 7" stroke="#252525" stroke-width="2" stroke-linecap="round"/>
<path d="M16 13L7 13" stroke="#252525" stroke-width="2" stroke-linecap="round"/>
<path d="M13 19H7" stroke="#252525" stroke-width="2" stroke-linecap="round"/>
<path d="M23.5 18L21.2 17L20 19L20.6 21L23.5 18Z" fill="#F5F5F5"/>
<path d="M15.1111 26.7143L16 25.8571V25.4286L14.2222 25L13.7778 25.4286L13.3333 25.8571L12.4444 26.5L11 28H12.4444H13.7778L15.1111 26.7143Z" fill="#F5F5F5"/>
<path d="M19.8889 21.7143L21 20.8571V20.4286L18.7778 20L18.2222 20.4286L17.6667 20.8571L17.1111 21.7143L16 22.5714L16.5556 23H18.2222L19.8889 21.7143Z" fill="#F5F5F5"/>
<path d="M23.5954 10.3895L23.5955 10.3895L23.5911 10.3945L21.8049 12.4204L26.0504 15.6928L27.7309 13.6819C27.8916 13.4897 27.957 13.2112 27.9421 13.0499C27.9273 12.8887 27.8129 12.6334 27.6242 12.4839L24.8055 10.2496C24.4291 9.95116 23.9181 10.0034 23.5954 10.3895Z" fill="#252525" stroke="#F2F2F2" stroke-width="0.5"/>
<path d="M25.498 12.9727C25.5446 12.9171 25.5679 12.8429 25.5679 12.7965C25.5679 12.7501 25.5445 12.6851 25.4978 12.648L24.9608 12.2205C24.8674 12.1462 24.7273 12.1738 24.634 12.2851L24.1907 12.7901L25.078 13.4731L25.498 12.9727Z" fill="white"/>
<path d="M22.4685 16.9778L22.5834 17.0688L22.4894 17.1813L13.1764 28.3252L13.1365 28.3729L13.0732 28.38L12.0612 28.4939L11.9054 28.5114L11.8917 28.3627L11.8008 27.3745L11.7954 27.316L11.834 27.2697L21.1471 16.1259L21.2454 16.0082L21.3655 16.1035L22.4685 16.9778ZM10.1371 30.6348L14.1906 30.1785L25.3051 16.7586L21.0046 13.3498L9.77215 26.67L10.1371 30.6348Z" fill="#252525" stroke="#F2F2F2" stroke-width="0.3"/>
</svg>
