<svg width="28" height="24" viewBox="0 0 28 24" fill="none" xmlns="http://www.w3.org/2000/svg">
<path d="M21.9988 20.0922C23.6879 20.2242 25.3871 20.0161 26.9869 19.4813C27.048 18.7612 26.8946 18.0393 26.5447 17.3991C26.1947 16.7589 25.6624 16.2265 25.0093 15.8636C24.3562 15.5007 23.609 15.3221 22.8542 15.3484C22.0994 15.3747 21.3678 15.6049 20.7441 16.0123M21.9975 20.0909L21.9988 20.1304C21.9988 20.4174 21.9828 20.7005 21.9495 20.9798C19.5299 22.3076 16.7881 23.0042 13.9986 23C11.1052 23 8.38918 22.2654 6.04779 20.9798C6.01351 20.6847 5.99704 20.3878 5.99846 20.0909M21.9988 20.0909C21.9936 18.6454 21.5584 17.2312 20.7441 16.0136L21.9988 20.0909ZM20.7441 16.0136C20.0213 14.9292 19.0242 14.0368 17.8452 13.4188C16.6661 12.8009 15.3431 12.4774 13.9986 12.4783C12.6544 12.4776 11.3317 12.8012 10.1529 13.4191C8.97403 14.0371 7.97717 14.9294 7.25449 16.0136M7.25449 16.0136C6.63075 15.6065 5.89931 15.3766 5.14473 15.3505C4.39015 15.3244 3.64325 15.5031 2.9904 15.866C2.33754 16.2288 1.80539 16.761 1.45547 17.401C1.10555 18.041 0.952153 18.7627 1.01302 19.4825C2.6116 20.0203 4.31126 20.2277 5.99979 20.0909M7.25315 16.0136C6.4393 17.2314 6.00458 18.6455 5.99979 20.0909L7.25315 16.0136ZM17.9987 4.82608C17.9987 5.84082 17.5773 6.814 16.8271 7.53153C16.077 8.24906 15.0595 8.65217 13.9986 8.65217C12.9377 8.65217 11.9203 8.24906 11.1701 7.53153C10.42 6.814 9.99854 5.84082 9.99854 4.82608C9.99854 3.81134 10.42 2.83816 11.1701 2.12063C11.9203 1.4031 12.9377 1 13.9986 1C15.0595 1 16.077 1.4031 16.8271 2.12063C17.5773 2.83816 17.9987 3.81134 17.9987 4.82608ZM25.9989 8.65217C25.9989 9.029 25.9213 9.40215 25.7705 9.7503C25.6198 10.0985 25.3988 10.4148 25.1202 10.6813C24.8416 10.9477 24.5109 11.1591 24.1469 11.3033C23.7829 11.4475 23.3928 11.5217 22.9988 11.5217C22.6048 11.5217 22.2147 11.4475 21.8507 11.3033C21.4868 11.1591 21.156 10.9477 20.8775 10.6813C20.5989 10.4148 20.3779 10.0985 20.2271 9.7503C20.0764 9.40215 19.9988 9.029 19.9988 8.65217C19.9988 7.89111 20.3148 7.16123 20.8775 6.62308C21.4401 6.08493 22.2032 5.7826 22.9988 5.7826C23.7945 5.7826 24.5576 6.08493 25.1202 6.62308C25.6828 7.16123 25.9989 7.89111 25.9989 8.65217ZM7.9985 8.65217C7.9985 9.029 7.9209 9.40215 7.77014 9.7503C7.61937 10.0985 7.39838 10.4148 7.1198 10.6813C6.84122 10.9477 6.5105 11.1591 6.14651 11.3033C5.78253 11.4475 5.39241 11.5217 4.99844 11.5217C4.60446 11.5217 4.21435 11.4475 3.85036 11.3033C3.48638 11.1591 3.15565 10.9477 2.87707 10.6813C2.59849 10.4148 2.37751 10.0985 2.22674 9.7503C2.07597 9.40215 1.99837 9.029 1.99837 8.65217C1.99837 7.89111 2.31445 7.16123 2.87707 6.62308C3.43969 6.08493 4.20277 5.7826 4.99844 5.7826C5.7941 5.7826 6.55718 6.08493 7.1198 6.62308C7.68242 7.16123 7.9985 7.89111 7.9985 8.65217Z" fill="#F54F59"/>
<path d="M20 16H8L6.5 20H21.5L20 16Z" fill="#F54F59"/>
<path d="M22.0378 19.5937C21.7625 19.5722 21.5218 19.7779 21.5003 20.0532C21.4788 20.3285 21.6845 20.5691 21.9598 20.5906L22.0378 19.5937ZM26.9869 19.4813L27.1454 19.9555C27.3347 19.8922 27.4682 19.7224 27.4851 19.5235L26.9869 19.4813ZM20.4707 15.5937C20.2395 15.7447 20.1745 16.0545 20.3255 16.2857C20.4765 16.5169 20.7863 16.5819 21.0175 16.4309L20.4707 15.5937ZM22.4972 20.074C22.4879 19.798 22.2566 19.5819 21.9806 19.5912C21.7046 19.6005 21.4884 19.8317 21.4977 20.1077L22.4972 20.074ZM21.9988 20.1304H22.4988C22.4988 20.1248 22.4987 20.1192 22.4985 20.1136L21.9988 20.1304ZM21.9495 20.9798L22.19 21.4181C22.3315 21.3405 22.4268 21.1993 22.4459 21.0391L21.9495 20.9798ZM13.9986 23L13.9994 22.5H13.9986V23ZM6.04779 20.9798L5.55113 21.0375C5.56981 21.1983 5.66522 21.3402 5.80715 21.4181L6.04779 20.9798ZM6.49845 20.0933C6.49977 19.8171 6.27699 19.5922 6.00085 19.5909C5.72471 19.5896 5.49978 19.8124 5.49846 20.0885L6.49845 20.0933ZM21.4988 20.0927C21.4998 20.3688 21.7245 20.5919 22.0006 20.5909C22.2767 20.5899 22.4998 20.3652 22.4988 20.0891L21.4988 20.0927ZM20.7441 16.0136L20.3281 16.2909L20.3285 16.2915L20.7441 16.0136ZM13.9986 12.4783L13.9984 12.9783H13.999L13.9986 12.4783ZM7.25449 16.0136L6.98123 16.4323C7.21089 16.5822 7.51842 16.5191 7.67052 16.2909L7.25449 16.0136ZM1.01302 19.4825L0.514797 19.5247C0.531587 19.7232 0.6647 19.8929 0.853587 19.9564L1.01302 19.4825ZM5.99979 20.0909L6.04017 20.5892C6.29917 20.5683 6.49893 20.3524 6.49979 20.0925L5.99979 20.0909ZM7.66886 16.2914C7.8223 16.0618 7.76056 15.7513 7.53097 15.5978C7.30138 15.4444 6.99087 15.5061 6.83744 15.7357L7.66886 16.2914ZM17.9987 4.82608H18.4987H17.9987ZM13.9986 1V0.5V1ZM25.9989 8.65217H26.4989H25.9989ZM19.9988 8.65217H19.4988H19.9988ZM22.9988 5.7826V6.2826V5.7826ZM7.9985 8.65217H8.4985H7.9985ZM4.99844 11.5217V12.0217V11.5217ZM1.99837 8.65217H1.49837H1.99837ZM4.99844 5.7826V6.2826V5.7826ZM8 16V15.5H7.6535L7.53184 15.8244L8 16ZM20 16L20.4682 15.8244L20.3465 15.5H20V16ZM21.5 20V20.5H22.2215L21.9682 19.8244L21.5 20ZM6.5 20L6.03184 19.8244L5.7785 20.5H6.5V20ZM21.9598 20.5906C23.7154 20.7278 25.4818 20.5116 27.1454 19.9555L26.8284 19.0071C25.2924 19.5205 23.6603 19.7205 22.0378 19.5937L21.9598 20.5906ZM27.4851 19.5235C27.5546 18.7046 27.38 17.8847 26.9834 17.1592L26.1059 17.6389C26.4093 18.1938 26.5414 18.8178 26.4887 19.439L27.4851 19.5235ZM26.9834 17.1592C26.587 16.434 25.9858 15.8342 25.2521 15.4265L24.7664 16.3007C25.339 16.6188 25.8024 17.0837 26.1059 17.6389L26.9834 17.1592ZM25.2521 15.4265C24.5187 15.019 23.6814 14.8192 22.8368 14.8487L22.8717 15.8481C23.5366 15.8249 24.1937 15.9824 24.7664 16.3007L25.2521 15.4265ZM22.8368 14.8487C21.9922 14.8781 21.1719 15.1357 20.4707 15.5937L21.0175 16.4309C21.5638 16.0741 22.2067 15.8712 22.8717 15.8481L22.8368 14.8487ZM21.4977 20.1077L21.4991 20.1473L22.4985 20.1136L22.4972 20.074L21.4977 20.1077ZM21.4988 20.1304C21.4988 20.3988 21.4838 20.6621 21.453 20.9206L22.4459 21.0391C22.4818 20.7389 22.4988 20.436 22.4988 20.1304H21.4988ZM21.7089 20.5415C19.3641 21.8282 16.7055 22.5041 13.9994 22.5L13.9979 23.5C16.8708 23.5044 19.6957 22.787 22.19 21.4181L21.7089 20.5415ZM13.9986 22.5C11.1905 22.5 8.55709 21.7872 6.28844 20.5415L5.80715 21.4181C8.22127 22.7436 11.02 23.5 13.9986 23.5V22.5ZM6.54446 20.9221C6.51249 20.6469 6.49713 20.3702 6.49845 20.0933L5.49846 20.0885C5.49695 20.4055 5.51454 20.7224 5.55113 21.0375L6.54446 20.9221ZM22.4988 20.0891C22.4932 18.5439 22.0279 17.0339 21.1597 15.7356L20.3285 16.2915C21.0889 17.4286 21.494 18.747 21.4988 20.0927L22.4988 20.0891ZM21.1601 15.7362C20.3898 14.5806 19.3289 13.6319 18.0773 12.976L17.613 13.8617C18.7196 14.4416 19.6528 15.2778 20.3281 16.2909L21.1601 15.7362ZM18.0773 12.976C16.8257 12.3201 15.4229 11.9773 13.9983 11.9783L13.999 12.9783C15.2633 12.9774 16.5064 13.2817 17.613 13.8617L18.0773 12.976ZM13.9989 11.9783C12.5745 11.9776 11.172 12.3204 9.92071 12.9763L10.385 13.862C11.4914 13.282 12.7342 12.9776 13.9984 12.9783L13.9989 11.9783ZM9.92071 12.9763C8.66936 13.6323 7.60863 14.5808 6.83845 15.7362L7.67052 16.2909C8.34571 15.278 9.2787 14.4419 10.385 13.862L9.92071 12.9763ZM7.52774 15.5948C6.82657 15.1373 6.00639 14.8801 5.16203 14.8508L5.12744 15.8502C5.79223 15.8732 6.43494 16.0758 6.98123 16.4323L7.52774 15.5948ZM5.16203 14.8508C4.31767 14.8216 3.48068 15.0214 2.7475 15.4289L3.2333 16.303C3.80583 15.9848 4.46263 15.8272 5.12744 15.8502L5.16203 14.8508ZM2.7475 15.4289C2.01414 15.8365 1.41314 16.4362 1.01676 17.1611L1.89417 17.6409C2.19763 17.0859 2.66093 16.6211 3.2333 16.303L2.7475 15.4289ZM1.01676 17.1611C0.620237 17.8864 0.445577 18.706 0.514797 19.5247L1.51124 19.4404C1.45873 18.8193 1.59086 18.1956 1.89417 17.6409L1.01676 17.1611ZM0.853587 19.9564C2.51671 20.516 4.28437 20.7315 6.04017 20.5892L5.95941 19.5925C4.33815 19.7239 2.70648 19.5247 1.17245 19.0086L0.853587 19.9564ZM6.83744 15.7357C5.96973 17.0341 5.50492 18.5442 5.49979 20.0892L6.49979 20.0925C6.50425 18.7469 6.90887 17.4286 7.66886 16.2914L6.83744 15.7357ZM17.4987 4.82608C17.4987 5.70086 17.1356 6.54456 16.4815 7.17021L17.1727 7.89286C18.0189 7.08345 18.4987 5.98079 18.4987 4.82608H17.4987ZM16.4815 7.17021C15.8266 7.79658 14.9339 8.15217 13.9986 8.15217V9.15217C15.1851 9.15217 16.3273 8.70154 17.1727 7.89286L16.4815 7.17021ZM13.9986 8.15217C13.0633 8.15217 12.1706 7.79658 11.5157 7.17021L10.8245 7.89286C11.67 8.70154 12.8121 9.15217 13.9986 9.15217V8.15217ZM11.5157 7.17021C10.8616 6.54456 10.4985 5.70086 10.4985 4.82608H9.49854C9.49854 5.98079 9.97832 7.08345 10.8245 7.89286L11.5157 7.17021ZM10.4985 4.82608C10.4985 3.95131 10.8616 3.10761 11.5157 2.48196L10.8245 1.75931C9.97832 2.56872 9.49854 3.67138 9.49854 4.82608H10.4985ZM11.5157 2.48196C12.1706 1.85558 13.0633 1.5 13.9986 1.5V0.5C12.8121 0.5 11.67 0.950624 10.8245 1.75931L11.5157 2.48196ZM13.9986 1.5C14.9339 1.5 15.8266 1.85558 16.4815 2.48196L17.1727 1.75931C16.3273 0.950624 15.1851 0.5 13.9986 0.5V1.5ZM16.4815 2.48196C17.1356 3.10761 17.4987 3.95131 17.4987 4.82608H18.4987C18.4987 3.67138 18.0189 2.56872 17.1727 1.75931L16.4815 2.48196ZM25.4989 8.65217C25.4989 8.96018 25.4355 9.26574 25.3117 9.55161L26.2293 9.949C26.4071 9.53856 26.4989 9.09783 26.4989 8.65217H25.4989ZM25.3117 9.55161C25.1879 9.83753 25.0057 10.0988 24.7746 10.3199L25.4658 11.0426C25.7918 10.7308 26.0516 10.3594 26.2293 9.949L25.3117 9.55161ZM24.7746 10.3199C24.5434 10.5411 24.2677 10.7176 23.9627 10.8385L24.3311 11.7681C24.7541 11.6005 25.1398 11.3544 25.4658 11.0426L24.7746 10.3199ZM23.9627 10.8385C23.6577 10.9593 23.3301 11.0217 22.9988 11.0217V12.0217C23.4554 12.0217 23.9081 11.9357 24.3311 11.7681L23.9627 10.8385ZM22.9988 11.0217C22.6675 11.0217 22.3399 10.9593 22.0349 10.8385L21.6666 11.7681C22.0896 11.9357 22.5422 12.0217 22.9988 12.0217V11.0217ZM22.0349 10.8385C21.73 10.7176 21.4543 10.5411 21.2231 10.3199L20.5318 11.0426C20.8578 11.3544 21.2436 11.6005 21.6666 11.7681L22.0349 10.8385ZM21.2231 10.3199C20.9919 10.0988 20.8098 9.83753 20.6859 9.55161L19.7683 9.949C19.946 10.3594 20.2058 10.7308 20.5318 11.0426L21.2231 10.3199ZM20.6859 9.55161C20.5622 9.26574 20.4988 8.96018 20.4988 8.65217H19.4988C19.4988 9.09783 19.5906 9.53856 19.7683 9.949L20.6859 9.55161ZM20.4988 8.65217C20.4988 8.03108 20.7565 7.43067 21.2231 6.98441L20.5318 6.26176C19.8732 6.89178 19.4988 7.75115 19.4988 8.65217H20.4988ZM21.2231 6.98441C21.6904 6.53741 22.3288 6.2826 22.9988 6.2826V5.2826C22.0775 5.2826 21.1898 5.63245 20.5318 6.26176L21.2231 6.98441ZM22.9988 6.2826C23.6689 6.2826 24.3073 6.53741 24.7746 6.98441L25.4658 6.26176C24.8079 5.63245 23.9201 5.2826 22.9988 5.2826V6.2826ZM24.7746 6.98441C25.2411 7.43067 25.4989 8.03108 25.4989 8.65217H26.4989C26.4989 7.75115 26.1245 6.89178 25.4658 6.26176L24.7746 6.98441ZM7.4985 8.65217C7.4985 8.96018 7.43511 9.26574 7.31131 9.55161L8.22896 9.949C8.4067 9.53856 8.4985 9.09783 8.4985 8.65217H7.4985ZM7.31131 9.55161C7.18749 9.83753 7.00536 10.0988 6.7742 10.3199L7.46541 11.0426C7.79141 10.7308 8.05125 10.3594 8.22896 9.949L7.31131 9.55161ZM6.7742 10.3199C6.54298 10.5411 6.2673 10.7176 5.96234 10.8385L6.33068 11.7681C6.7537 11.6005 7.13946 11.3544 7.46541 11.0426L6.7742 10.3199ZM5.96234 10.8385C5.65736 10.9593 5.32976 11.0217 4.99844 11.0217V12.0217C5.45506 12.0217 5.9077 11.9357 6.33068 11.7681L5.96234 10.8385ZM4.99844 11.0217C4.66711 11.0217 4.33952 10.9593 4.03453 10.8385L3.66619 11.7681C4.08918 11.9357 4.54181 12.0217 4.99844 12.0217V11.0217ZM4.03453 10.8385C3.72958 10.7176 3.45389 10.5411 3.22268 10.3199L2.53146 11.0426C2.85741 11.3544 3.24318 11.6005 3.66619 11.7681L4.03453 10.8385ZM3.22268 10.3199C2.99151 10.0988 2.80939 9.83753 2.68557 9.55161L1.76792 9.949C1.94563 10.3594 2.20547 10.7308 2.53146 11.0426L3.22268 10.3199ZM2.68557 9.55161C2.56177 9.26574 2.49837 8.96018 2.49837 8.65217H1.49837C1.49837 9.09783 1.59018 9.53856 1.76792 9.949L2.68557 9.55161ZM2.49837 8.65217C2.49837 8.03108 2.75612 7.43067 3.22268 6.98441L2.53146 6.26176C1.87279 6.89178 1.49837 7.75115 1.49837 8.65217H2.49837ZM3.22268 6.98441C3.69 6.53741 4.32838 6.2826 4.99844 6.2826V5.2826C4.07716 5.2826 3.18939 5.63245 2.53146 6.26176L3.22268 6.98441ZM4.99844 6.2826C5.66849 6.2826 6.30687 6.53741 6.7742 6.98441L7.46541 6.26176C6.80749 5.63245 5.91971 5.2826 4.99844 5.2826V6.2826ZM6.7742 6.98441C7.24076 7.43067 7.4985 8.03108 7.4985 8.65217H8.4985C8.4985 7.75115 8.12409 6.89178 7.46541 6.26176L6.7742 6.98441ZM8 16.5H20V15.5H8V16.5ZM19.5318 16.1756L21.0318 20.1756L21.9682 19.8244L20.4682 15.8244L19.5318 16.1756ZM21.5 19.5H6.5V20.5H21.5V19.5ZM6.96816 20.1756L8.46816 16.1756L7.53184 15.8244L6.03184 19.8244L6.96816 20.1756Z" fill="#F54F59"/>
</svg>
