<svg width="28" height="24" viewBox="0 0 28 24" fill="none" xmlns="http://www.w3.org/2000/svg">
<path d="M21.9988 20.0922C23.6879 20.2242 25.3871 20.0161 26.9869 19.4813C27.048 18.7612 26.8946 18.0393 26.5447 17.3991C26.1947 16.7589 25.6624 16.2265 25.0093 15.8636C24.3562 15.5007 23.609 15.3221 22.8542 15.3484C22.0994 15.3747 21.3678 15.6049 20.7441 16.0123M21.9975 20.0909L21.9988 20.1304C21.9988 20.4174 21.9828 20.7005 21.9495 20.9798C19.5299 22.3076 16.7881 23.0042 13.9986 23C11.1052 23 8.38918 22.2654 6.04779 20.9798C6.01351 20.6847 5.99704 20.3879 5.99846 20.0909M21.9988 20.0909C21.9936 18.6454 21.5584 17.2312 20.7441 16.0136M20.7441 16.0136C20.0213 14.9292 19.0242 14.0368 17.8452 13.4188C16.6661 12.8009 15.3431 12.4774 13.9986 12.4783C12.6544 12.4776 11.3317 12.8012 10.1529 13.4191C8.97403 14.0371 7.97717 14.9294 7.25449 16.0136M7.25449 16.0136C6.63075 15.6065 5.89931 15.3766 5.14473 15.3505C4.39015 15.3244 3.64325 15.5031 2.9904 15.866C2.33754 16.2288 1.80539 16.761 1.45547 17.401C1.10555 18.041 0.952153 18.7627 1.01302 19.4825C2.6116 20.0203 4.31126 20.2277 5.99979 20.0909M7.25315 16.0136C6.4393 17.2314 6.00458 18.6455 5.99979 20.0909M17.9987 4.82608C17.9987 5.84082 17.5773 6.814 16.8271 7.53153C16.077 8.24906 15.0595 8.65217 13.9986 8.65217C12.9377 8.65217 11.9203 8.24906 11.1701 7.53153C10.42 6.814 9.99854 5.84082 9.99854 4.82608C9.99854 3.81134 10.42 2.83816 11.1701 2.12063C11.9203 1.4031 12.9377 1 13.9986 1C15.0595 1 16.077 1.4031 16.8271 2.12063C17.5773 2.83816 17.9987 3.81134 17.9987 4.82608V4.82608ZM25.9989 8.65217C25.9989 9.029 25.9213 9.40215 25.7705 9.7503C25.6197 10.0985 25.3988 10.4148 25.1202 10.6813C24.8416 10.9477 24.5109 11.1591 24.1469 11.3033C23.7829 11.4475 23.3928 11.5217 22.9988 11.5217C22.6048 11.5217 22.2147 11.4475 21.8507 11.3033C21.4868 11.1591 21.156 10.9477 20.8775 10.6813C20.5989 10.4148 20.3779 10.0985 20.2271 9.7503C20.0764 9.40215 19.9988 9.029 19.9988 8.65217C19.9988 7.89111 20.3148 7.16123 20.8775 6.62308C21.4401 6.08493 22.2032 5.7826 22.9988 5.7826C23.7945 5.7826 24.5576 6.08493 25.1202 6.62308C25.6828 7.16123 25.9989 7.89111 25.9989 8.65217V8.65217ZM7.9985 8.65217C7.9985 9.029 7.9209 9.40215 7.77014 9.7503C7.61937 10.0985 7.39838 10.4148 7.1198 10.6813C6.84122 10.9477 6.5105 11.1591 6.14651 11.3033C5.78253 11.4475 5.39241 11.5217 4.99844 11.5217C4.60446 11.5217 4.21435 11.4475 3.85036 11.3033C3.48638 11.1591 3.15565 10.9477 2.87707 10.6813C2.59849 10.4148 2.37751 10.0985 2.22674 9.7503C2.07597 9.40215 1.99837 9.029 1.99837 8.65217C1.99837 7.89111 2.31445 7.16123 2.87707 6.62308C3.43969 6.08493 4.20277 5.7826 4.99844 5.7826C5.7941 5.7826 6.55718 6.08493 7.1198 6.62308C7.68242 7.16123 7.9985 7.89111 7.9985 8.65217V8.65217Z" stroke="#252525" stroke-width="1.5" stroke-linecap="round" stroke-linejoin="round"/>
</svg>
